<svg width="1600" height="900" viewBox="0 0 1600 900" xmlns="http://www.w3.org/2000/svg">
  <rect width="1600" height="900" fill="#F2EEE7"/>
  <path d="M-80 120C140 -10 360 10 470 180C560 320 520 470 370 520C180 580 10 500 -120 350C-200 260 -200 190 -80 120Z" fill="#6F7E53"/>
  <path d="M70 400C250 330 390 380 430 500C470 620 330 700 170 700C40 700 -50 620 -40 520C-30 460 0 430 70 400Z" fill="#B7C4A1"/>
  <path d="M1040 50C1220 -40 1460 -20 1640 80V280C1530 230 1410 230 1280 260C1130 290 1010 260 980 180C960 130 980 90 1040 50Z" fill="#A8B293"/>
  <path d="M870 560C1060 430 1350 430 1590 520V840C1360 860 1120 860 930 780C820 730 790 620 870 560Z" fill="#6E7D55"/>
  <path d="M1160 620C1320 560 1490 600 1600 680V900H1080C1060 820 1080 670 1160 620Z" fill="#446052"/>
  <path d="M1080 760C1240 720 1450 740 1600 820V900H960C960 840 990 790 1080 760Z" fill="#3E5950"/>

  <path d="M140 0C60 100 60 180 120 260C180 340 180 420 110 520C30 640 30 740 120 860" stroke="#D7D0C3" stroke-width="12" fill="none" stroke-linecap="round"/>
  <path d="M470 -40C390 70 390 160 450 240C510 320 510 410 450 500C380 610 380 720 470 860" stroke="#D7D0C3" stroke-width="12" fill="none" stroke-linecap="round"/>
  <path d="M760 -20C680 90 680 180 740 260C800 340 800 430 740 520C670 630 670 740 760 880" stroke="#D7D0C3" stroke-width="12" fill="none" stroke-linecap="round"/>
  <path d="M1050 -40C970 70 970 170 1030 250C1090 330 1090 420 1030 510C960 620 960 730 1050 860" stroke="#D7D0C3" stroke-width="12" fill="none" stroke-linecap="round"/>
  <path d="M1360 0C1280 110 1280 200 1340 280C1400 360 1400 450 1340 540C1270 650 1270 760 1360 900" stroke="#D7D0C3" stroke-width="12" fill="none" stroke-linecap="round"/>
</svg>
